<?xml version="1.0" encoding="utf-8"?>
<!-- Uploaded to: SVG Repo, www.svgrepo.com, Generator: SVG Repo Mixer Tools -->
<svg fill="#000000" width="800px" height="800px" viewBox="0 0 32 32" version="1.1" xmlns="http://www.w3.org/2000/svg">
<title>times</title>
<path d="M17.062 16l9.37-9.37c0.136-0.136 0.219-0.323 0.219-0.53 0-0.415-0.336-0.751-0.751-0.751-0.208 0-0.395 0.084-0.531 0.22v0l-9.369 9.369-9.37-9.369c-0.135-0.131-0.319-0.212-0.522-0.212-0.414 0-0.75 0.336-0.75 0.75 0 0.203 0.081 0.387 0.212 0.522l9.368 9.369-9.369 9.369c-0.136 0.136-0.22 0.324-0.22 0.531 0 0.415 0.336 0.751 0.751 0.751 0.207 0 0.394-0.084 0.53-0.219v0l9.37-9.37 9.369 9.37c0.136 0.136 0.324 0.22 0.531 0.22 0.415 0 0.751-0.336 0.751-0.751 0-0.207-0.084-0.395-0.22-0.531v0z"></path>
</svg>